<svg width="1570" height="522" viewBox="0 0 1570 522" fill="none" xmlns="http://www.w3.org/2000/svg">
<rect width="1570" height="522" fill="black"/>
<path d="M311.5 163H179V230.5H309V307.5H179V436H99V86H311.5V163Z" fill="url(#paint0_linear_11_11)"/>
<path d="M389.766 436V378L507.266 256C530.932 231.667 542.766 211 542.766 194C542.766 183 539.432 174.167 532.766 167.5C526.099 160.5 516.932 157 505.266 157C481.932 157 464.766 169.667 453.766 195L386.266 155.5C396.932 130.5 412.932 111.5 434.266 98.5C455.599 85.5 478.932 79 504.266 79C536.932 79 564.766 89.1667 587.766 109.5C611.099 129.5 622.766 156.5 622.766 190.5C622.766 227.5 604.599 264.167 568.266 300.5L510.266 359H627.766V436H389.766Z" fill="url(#paint1_linear_11_11)"/>
<path d="M882.602 443C830.268 443 786.768 425.667 752.102 391C717.768 356 700.602 312.667 700.602 261C700.602 209.333 717.768 166.167 752.102 131.5C786.768 96.5 830.268 79 882.602 79C913.935 79 942.935 86.3333 969.602 101C996.268 115.333 1017.27 135 1032.6 160L963.602 200C955.935 186.333 944.935 175.833 930.602 168.5C916.268 160.833 900.268 157 882.602 157C851.602 157 826.768 166.5 808.102 185.5C789.768 204.5 780.602 229.667 780.602 261C780.602 292.333 789.768 317.5 808.102 336.5C826.768 355.5 851.602 365 882.602 365C900.268 365 916.268 361.167 930.602 353.5C945.268 345.833 956.268 335.333 963.602 322L1032.6 362C1017.6 387 996.768 406.833 970.102 421.5C943.435 435.833 914.268 443 882.602 443Z" fill="url(#paint2_linear_11_11)"/>
<path d="M1470.09 86V436H1390.09V232.5L1299.59 381H1290.59L1200.09 232.5V436H1120.09V86H1200.09L1295.09 241.5L1390.09 86H1470.09Z" fill="url(#paint3_linear_11_11)"/>
<defs>
<linearGradient id="paint0_linear_11_11" x1="784.547" y1="79" x2="784.547" y2="443" gradientUnits="userSpaceOnUse">
<stop stop-color="#FF0460"/>
<stop offset="1" stop-color="#FFCF11"/>
</linearGradient>
<linearGradient id="paint1_linear_11_11" x1="784.547" y1="79" x2="784.547" y2="443" gradientUnits="userSpaceOnUse">
<stop stop-color="#FF0460"/>
<stop offset="1" stop-color="#FFCF11"/>
</linearGradient>
<linearGradient id="paint2_linear_11_11" x1="784.547" y1="79" x2="784.547" y2="443" gradientUnits="userSpaceOnUse">
<stop stop-color="#FF0460"/>
<stop offset="1" stop-color="#FFCF11"/>
</linearGradient>
<linearGradient id="paint3_linear_11_11" x1="784.547" y1="79" x2="784.547" y2="443" gradientUnits="userSpaceOnUse">
<stop stop-color="#FF0460"/>
<stop offset="1" stop-color="#FFCF11"/>
</linearGradient>
</defs>
</svg>
